<svg xmlns="http://www.w3.org/2000/svg" xmlns:xlink="http://www.w3.org/1999/xlink" width="500" zoomAndPan="magnify" viewBox="0 0 375 225" height="300" preserveAspectRatio="xMidYMid meet" version="1.0"><defs><g/><clipPath id="7266d754e3"><path d="M 148 40 L 167 40 L 167 83.824219 L 148 83.824219 Z M 148 40 " clip-rule="nonzero"/></clipPath><clipPath id="e0ab6d015e"><path d="M 225 3.574219 L 240 3.574219 L 240 16 L 225 16 Z M 225 3.574219 " clip-rule="nonzero"/></clipPath><clipPath id="3c77b76005"><path d="M 78 3.574219 L 92 3.574219 L 92 16 L 78 16 Z M 78 3.574219 " clip-rule="nonzero"/></clipPath></defs><rect x="-37.5" width="450" fill="#ffffff" y="-22.5" height="270" fill-opacity="1"/><rect x="-37.5" width="450" fill="#ffffff" y="-22.5" height="270" fill-opacity="1"/><g fill="#1d4e89" fill-opacity="1"><g transform="translate(58.858344, 170.039079)"><g><path d="M 70.65625 -35.46875 C 70.832031 -34.726562 70.96875 -34.0625 71.0625 -33.46875 C 71.15625 -32.875 71.25 -32.394531 71.34375 -32.03125 C 71.34375 -31.75 71.363281 -31.445312 71.40625 -31.125 C 71.445312 -30.8125 71.46875 -30.515625 71.46875 -30.234375 L 71.46875 -18.828125 C 71.46875 -18.648438 71.398438 -18.078125 71.265625 -17.109375 C 71.128906 -16.148438 70.785156 -14.984375 70.234375 -13.609375 C 69.679688 -12.234375 68.738281 -10.742188 67.40625 -9.140625 C 66.082031 -7.535156 64.226562 -6.046875 61.84375 -4.671875 C 59.46875 -3.296875 56.421875 -2.148438 52.703125 -1.234375 C 48.992188 -0.316406 44.4375 0.140625 39.03125 0.140625 C 38.570312 0.140625 37.953125 0.140625 37.171875 0.140625 C 36.398438 0.140625 34.957031 0.140625 32.84375 0.140625 C 30.738281 0.140625 27.625 0.113281 23.5 0.0625 C 19.375 0.0195312 13.691406 0 6.453125 0 L 6.453125 -80.953125 C 6.367188 -81.960938 6.070312 -82.71875 5.5625 -83.21875 C 5.0625 -83.726562 4.71875 -84.03125 4.53125 -84.125 C 4.070312 -84.394531 3.84375 -84.757812 3.84375 -85.21875 C 3.84375 -86.132812 4.253906 -86.59375 5.078125 -86.59375 L 39.859375 -86.59375 C 47.097656 -86.5 52.78125 -85.601562 56.90625 -83.90625 C 61.03125 -82.21875 64.164062 -80.316406 66.3125 -78.203125 C 68.46875 -76.097656 69.820312 -74.035156 70.375 -72.015625 C 70.925781 -70.003906 71.25 -68.632812 71.34375 -67.90625 C 71.34375 -67.625 71.363281 -67.320312 71.40625 -67 C 71.445312 -66.6875 71.46875 -66.390625 71.46875 -66.109375 L 71.46875 -62.265625 C 71.382812 -60.335938 70.925781 -58.457031 70.09375 -56.625 C 69.363281 -55.070312 68.195312 -53.398438 66.59375 -51.609375 C 64.988281 -49.828125 62.675781 -48.25 59.65625 -46.875 C 63.226562 -45.21875 65.816406 -43.335938 67.421875 -41.234375 C 69.023438 -39.128906 70.101562 -37.207031 70.65625 -35.46875 Z M 47.015625 -73.40625 C 46.921875 -74.40625 46.597656 -75.320312 46.046875 -76.15625 C 45.585938 -76.882812 44.785156 -77.519531 43.640625 -78.0625 C 42.492188 -78.613281 40.914062 -78.890625 38.90625 -78.890625 L 30.796875 -78.890625 L 30.921875 -50.859375 L 38.90625 -50.859375 C 40.914062 -50.859375 42.492188 -51.128906 43.640625 -51.671875 C 44.785156 -52.222656 45.585938 -52.867188 46.046875 -53.609375 C 46.597656 -54.429688 46.921875 -55.394531 47.015625 -56.5 Z M 47.015625 -13.609375 L 47.015625 -37.53125 C 46.921875 -38.53125 46.597656 -39.445312 46.046875 -40.28125 C 45.585938 -41.007812 44.785156 -41.644531 43.640625 -42.1875 C 42.492188 -42.738281 40.914062 -43.015625 38.90625 -43.015625 L 30.796875 -43.015625 L 30.796875 -20.34375 L 30.921875 -7.5625 L 38.90625 -7.5625 C 40.914062 -7.5625 42.492188 -7.832031 43.640625 -8.375 C 44.785156 -8.925781 45.585938 -9.570312 46.046875 -10.3125 C 46.597656 -11.132812 46.921875 -12.050781 47.015625 -13.0625 Z M 47.015625 -13.609375 "/></g></g></g><g fill="#1d4e89" fill-opacity="1"><g transform="translate(134.454651, 170.039079)"><g><path d="M 36.703125 -2.46875 C 37.160156 -2.289062 37.390625 -1.925781 37.390625 -1.375 C 37.390625 -0.457031 36.976562 0 36.15625 0 L 9.203125 0 C 8.285156 0 7.828125 -0.457031 7.828125 -1.375 C 7.828125 -1.925781 8.054688 -2.289062 8.515625 -2.46875 L 8.65625 -2.609375 C 8.75 -2.703125 9.070312 -2.976562 9.625 -3.4375 C 10.175781 -3.894531 10.453125 -4.71875 10.453125 -5.90625 C 10.453125 -5.90625 10.453125 -6.039062 10.453125 -6.3125 C 10.453125 -6.59375 10.453125 -7.421875 10.453125 -8.796875 C 10.453125 -10.171875 10.453125 -12.367188 10.453125 -15.390625 C 10.453125 -18.421875 10.453125 -22.707031 10.453125 -28.25 C 10.453125 -33.789062 10.453125 -40.820312 10.453125 -49.34375 C 10.453125 -57.863281 10.453125 -68.359375 10.453125 -80.828125 C 10.453125 -82.015625 10.175781 -82.859375 9.625 -83.359375 C 9.070312 -83.867188 8.75 -84.171875 8.65625 -84.265625 L 8.515625 -84.265625 C 8.054688 -84.535156 7.828125 -84.898438 7.828125 -85.359375 C 7.828125 -86.273438 8.285156 -86.734375 9.203125 -86.734375 L 36.15625 -86.734375 C 36.976562 -86.734375 37.390625 -86.273438 37.390625 -85.359375 C 37.390625 -84.898438 37.160156 -84.535156 36.703125 -84.265625 C 36.515625 -84.171875 36.144531 -83.867188 35.59375 -83.359375 C 35.050781 -82.859375 34.78125 -82.015625 34.78125 -80.828125 L 34.78125 -5.90625 C 34.78125 -4.71875 35.050781 -3.894531 35.59375 -3.4375 C 36.144531 -2.976562 36.515625 -2.703125 36.703125 -2.609375 Z M 36.703125 -2.46875 "/></g></g></g><g fill="#1d4e89" fill-opacity="1"><g transform="translate(179.812439, 170.039079)"><g><path d="M 70.375 -21.578125 C 70.28125 -17.453125 70.367188 -14.035156 70.640625 -11.328125 C 70.921875 -8.628906 71.242188 -6.410156 71.609375 -4.671875 C 71.972656 -2.660156 72.429688 -1.054688 72.984375 0.140625 L 56.765625 0 C 53.835938 -0.363281 51.382812 -1.550781 49.40625 -3.5625 C 47.4375 -5.582031 46.316406 -8.0625 46.046875 -11 C 45.953125 -10.90625 45.90625 -11.132812 45.90625 -11.6875 C 45.90625 -12.238281 45.90625 -12.878906 45.90625 -13.609375 L 45.765625 -37.53125 C 45.679688 -38.53125 45.363281 -39.445312 44.8125 -40.28125 C 44.351562 -41.007812 43.550781 -41.644531 42.40625 -42.1875 C 41.257812 -42.738281 39.675781 -43.015625 37.65625 -43.015625 L 29.546875 -43.015625 L 29.546875 0 L 5.21875 0 L 5.21875 -80.953125 C 5.125 -81.960938 4.828125 -82.71875 4.328125 -83.21875 C 3.828125 -83.726562 3.484375 -84.03125 3.296875 -84.125 C 2.835938 -84.394531 2.609375 -84.757812 2.609375 -85.21875 C 2.609375 -86.132812 3.066406 -86.59375 3.984375 -86.59375 L 29.546875 -86.59375 L 29.546875 -63.640625 L 29.6875 -50.859375 L 37.796875 -50.859375 C 39.816406 -50.859375 41.351562 -51.128906 42.40625 -51.671875 C 43.457031 -52.222656 44.257812 -52.867188 44.8125 -53.609375 C 45.363281 -54.429688 45.726562 -55.394531 45.90625 -56.5 L 45.90625 -86.59375 L 70.234375 -86.59375 L 70.234375 -62.265625 C 70.140625 -60.335938 69.679688 -58.457031 68.859375 -56.625 C 68.128906 -55.070312 66.984375 -53.398438 65.421875 -51.609375 C 63.867188 -49.828125 61.582031 -48.25 58.5625 -46.875 C 62.039062 -45.21875 64.582031 -43.335938 66.1875 -41.234375 C 67.789062 -39.128906 68.863281 -37.207031 69.40625 -35.46875 C 69.6875 -34.726562 69.867188 -34.0625 69.953125 -33.46875 C 70.046875 -32.875 70.09375 -32.394531 70.09375 -32.03125 C 70.1875 -31.75 70.234375 -31.445312 70.234375 -31.125 C 70.234375 -30.8125 70.234375 -30.515625 70.234375 -30.234375 L 70.234375 -21.578125 Z M 70.375 -21.578125 "/></g></g></g><g fill="#1d4e89" fill-opacity="1"><g transform="translate(255.408746, 170.039079)"><g><path d="M 59.375 -32.578125 C 62.769531 -32.578125 65.65625 -31.40625 68.03125 -29.0625 C 70.414062 -26.726562 71.609375 -23.867188 71.609375 -20.484375 C 71.609375 -20.117188 71.582031 -19.796875 71.53125 -19.515625 C 71.488281 -19.242188 71.46875 -18.925781 71.46875 -18.5625 C 71.382812 -17.914062 71.113281 -16.722656 70.65625 -14.984375 C 70.195312 -13.242188 69.140625 -11.410156 67.484375 -9.484375 C 65.835938 -7.554688 63.410156 -5.722656 60.203125 -3.984375 C 56.992188 -2.242188 52.640625 -1.050781 47.140625 -0.40625 C 44.671875 -0.132812 41.925781 0 38.90625 0 L 22.265625 0 C 17.585938 0 12.316406 -0.046875 6.453125 -0.140625 L 6.453125 -81.09375 C 6.367188 -82.101562 6.070312 -82.859375 5.5625 -83.359375 C 5.0625 -83.867188 4.71875 -84.171875 4.53125 -84.265625 C 4.070312 -84.535156 3.84375 -84.898438 3.84375 -85.359375 C 3.84375 -86.273438 4.300781 -86.734375 5.21875 -86.734375 L 6.453125 -86.734375 L 39.171875 -86.875 C 44.398438 -86.875 48.820312 -86.4375 52.4375 -85.5625 C 56.0625 -84.695312 59.085938 -83.617188 61.515625 -82.328125 C 63.941406 -81.046875 65.816406 -79.601562 67.140625 -78 C 68.472656 -76.394531 69.457031 -74.90625 70.09375 -73.53125 C 70.832031 -72.070312 71.269531 -70.8125 71.40625 -69.75 C 71.539062 -68.695312 71.609375 -68.035156 71.609375 -67.765625 L 71.609375 -66.390625 C 71.609375 -62.992188 70.414062 -60.101562 68.03125 -57.71875 C 65.65625 -55.34375 62.769531 -54.15625 59.375 -54.15625 C 56.082031 -54.15625 53.265625 -55.320312 50.921875 -57.65625 C 48.585938 -60 47.375 -62.773438 47.28125 -65.984375 L 47.140625 -73.53125 C 47.054688 -74.539062 46.738281 -75.457031 46.1875 -76.28125 C 45.726562 -77.019531 44.925781 -77.6875 43.78125 -78.28125 C 42.632812 -78.875 41.050781 -79.171875 39.03125 -79.171875 L 31.0625 -79.171875 L 30.796875 -44.8125 L 35.59375 -44.8125 C 36.332031 -44.8125 36.90625 -45.015625 37.3125 -45.421875 C 37.726562 -45.835938 38.117188 -46.367188 38.484375 -47.015625 C 38.671875 -47.742188 38.898438 -48.242188 39.171875 -48.515625 C 39.816406 -49.160156 40.503906 -49.484375 41.234375 -49.484375 L 42.890625 -49.484375 C 43.617188 -49.484375 44.304688 -49.160156 44.953125 -48.515625 C 45.492188 -48.054688 45.765625 -47.414062 45.765625 -46.59375 L 45.765625 -33.125 C 45.765625 -32.570312 45.535156 -31.976562 45.078125 -31.34375 C 44.441406 -30.695312 43.710938 -30.375 42.890625 -30.375 L 41.234375 -30.375 C 40.316406 -30.375 39.539062 -30.832031 38.90625 -31.75 C 38.71875 -31.9375 38.625 -32.117188 38.625 -32.296875 C 38.257812 -33.035156 37.847656 -33.609375 37.390625 -34.015625 C 36.929688 -34.429688 36.332031 -34.640625 35.59375 -34.640625 L 30.796875 -34.640625 L 30.921875 -7.703125 L 39.03125 -7.703125 C 41.050781 -7.703125 42.632812 -7.972656 43.78125 -8.515625 C 44.925781 -9.066406 45.726562 -9.710938 46.1875 -10.453125 C 46.738281 -11.273438 47.054688 -12.191406 47.140625 -13.203125 L 47.140625 -17.3125 L 47.28125 -20.484375 C 47.28125 -23.867188 48.445312 -26.726562 50.78125 -29.0625 C 53.125 -31.40625 55.988281 -32.578125 59.375 -32.578125 Z M 59.375 -32.578125 "/></g></g></g><g clip-path="url(#7266d754e3)"><path fill="#1d4e89" d="M 166.550781 83.894531 L 148.175781 83.894531 L 148.175781 40.078125 L 166.550781 40.078125 L 166.550781 83.894531 " fill-opacity="1" fill-rule="nonzero"/></g><path fill="#1d4e89" d="M 250.851562 28.3125 C 250.851562 29.398438 249.964844 30.285156 248.882812 30.285156 C 248.882812 30.285156 219.339844 27.253906 213.53125 30.285156 C 207.710938 33.324219 191.179688 45.871094 183.65625 45.871094 C 176.132812 45.871094 140.621094 46.109375 130.597656 45.871094 C 120.574219 45.636719 107.996094 32.574219 101.144531 30.285156 C 94.300781 27.996094 65.890625 30.285156 65.890625 30.285156 C 64.796875 30.285156 63.921875 29.398438 63.921875 28.3125 L 63.921875 20.679688 C 63.921875 19.585938 64.796875 18.699219 65.890625 18.699219 C 65.890625 18.699219 91.335938 18.570312 101.773438 18.699219 C 109.296875 18.617188 123.902344 33.621094 130.8125 34.285156 C 137.726562 34.945312 178.011719 35.289062 183.859375 34.285156 C 189.710938 33.277344 207.257812 20.660156 213.109375 18.699219 C 218.957031 16.734375 248.882812 18.699219 248.882812 18.699219 C 249.964844 18.699219 250.851562 19.585938 250.851562 20.679688 L 250.851562 28.3125 " fill-opacity="1" fill-rule="nonzero"/><path fill="#1d4e89" d="M 169.179688 31.273438 C 169.179688 30.1875 168.300781 29.296875 167.210938 29.296875 L 165.671875 29.296875 C 163.132812 30.523438 160.335938 31.183594 157.488281 31.183594 C 154.632812 31.183594 151.835938 30.523438 149.308594 29.296875 L 147.554688 29.296875 C 146.472656 29.296875 145.585938 30.1875 145.585938 31.273438 L 145.585938 34.015625 C 146.125 35.804688 146.421875 37.667969 146.421875 39.554688 C 146.421875 41.449219 146.125 43.316406 145.585938 45.09375 L 145.585938 48.882812 C 145.585938 49.976562 146.472656 50.855469 147.554688 50.855469 L 150.234375 50.855469 C 152.515625 49.910156 154.980469 49.394531 157.488281 49.394531 C 159.992188 49.394531 162.464844 49.910156 164.738281 50.855469 L 167.210938 50.855469 C 168.300781 50.855469 169.179688 49.976562 169.179688 48.882812 L 169.179688 45.941406 C 168.5 43.96875 168.144531 41.875 168.144531 39.761719 C 168.144531 37.648438 168.5 35.558594 169.179688 33.59375 L 169.179688 31.273438 " fill-opacity="1" fill-rule="nonzero"/><path fill="#ffffff" d="M 151.335938 33.019531 C 151.335938 34.214844 150.371094 35.183594 149.179688 35.183594 C 147.988281 35.183594 147.023438 34.214844 147.023438 33.019531 C 147.023438 31.824219 147.988281 30.859375 149.179688 30.859375 C 150.371094 30.859375 151.335938 31.824219 151.335938 33.019531 " fill-opacity="1" fill-rule="nonzero"/><path fill="#1d4e89" d="M 150.191406 33.019531 C 150.191406 33.574219 149.730469 34.027344 149.179688 34.027344 C 148.628906 34.027344 148.175781 33.574219 148.175781 33.019531 C 148.175781 32.457031 148.628906 32.003906 149.179688 32.003906 C 149.730469 32.003906 150.191406 32.457031 150.191406 33.019531 " fill-opacity="1" fill-rule="nonzero"/><path fill="#ffffff" d="M 167.703125 33.019531 C 167.703125 34.214844 166.738281 35.183594 165.546875 35.183594 C 164.355469 35.183594 163.386719 34.214844 163.386719 33.019531 C 163.386719 31.824219 164.355469 30.859375 165.546875 30.859375 C 166.738281 30.859375 167.703125 31.824219 167.703125 33.019531 " fill-opacity="1" fill-rule="nonzero"/><path fill="#1d4e89" d="M 166.550781 33.019531 C 166.550781 33.574219 166.105469 34.027344 165.546875 34.027344 C 164.984375 34.027344 164.539062 33.574219 164.539062 33.019531 C 164.539062 32.457031 164.984375 32.003906 165.546875 32.003906 C 166.105469 32.003906 166.550781 32.457031 166.550781 33.019531 " fill-opacity="1" fill-rule="nonzero"/><path fill="#ffffff" d="M 151.335938 46.769531 C 151.335938 47.964844 150.371094 48.933594 149.179688 48.933594 C 147.988281 48.933594 147.023438 47.964844 147.023438 46.769531 C 147.023438 45.574219 147.988281 44.597656 149.179688 44.597656 C 150.371094 44.597656 151.335938 45.574219 151.335938 46.769531 " fill-opacity="1" fill-rule="nonzero"/><path fill="#1d4e89" d="M 150.191406 46.769531 C 150.191406 47.324219 149.730469 47.777344 149.179688 47.777344 C 148.628906 47.777344 148.175781 47.324219 148.175781 46.769531 C 148.175781 46.207031 148.628906 45.753906 149.179688 45.753906 C 149.730469 45.753906 150.191406 46.207031 150.191406 46.769531 " fill-opacity="1" fill-rule="nonzero"/><path fill="#ffffff" d="M 167.703125 46.769531 C 167.703125 47.964844 166.738281 48.933594 165.546875 48.933594 C 164.355469 48.933594 163.386719 47.964844 163.386719 46.769531 C 163.386719 45.574219 164.355469 44.597656 165.546875 44.597656 C 166.738281 44.597656 167.703125 45.574219 167.703125 46.769531 " fill-opacity="1" fill-rule="nonzero"/><path fill="#1d4e89" d="M 166.550781 46.769531 C 166.550781 47.324219 166.105469 47.777344 165.546875 47.777344 C 164.984375 47.777344 164.539062 47.324219 164.539062 46.769531 C 164.539062 46.207031 164.984375 45.753906 165.546875 45.753906 C 166.105469 45.753906 166.550781 46.207031 166.550781 46.769531 " fill-opacity="1" fill-rule="nonzero"/><path fill="#1d4e89" d="M 291.796875 30.195312 C 291.796875 31.292969 290.910156 32.179688 289.820312 32.179688 L 241.507812 32.179688 C 240.414062 32.179688 239.527344 31.292969 239.527344 30.195312 L 239.527344 18.785156 C 239.527344 17.691406 240.414062 16.800781 241.507812 16.800781 L 289.820312 16.800781 C 290.910156 16.800781 291.796875 17.691406 291.796875 18.785156 L 291.796875 30.195312 " fill-opacity="1" fill-rule="nonzero"/><path fill="#1d4e89" d="M 241.105469 32.230469 C 241.105469 33.097656 240.394531 33.800781 239.527344 33.800781 C 238.660156 33.800781 237.960938 33.097656 237.960938 32.230469 L 237.960938 16.753906 C 237.960938 15.894531 238.660156 15.183594 239.527344 15.183594 C 240.394531 15.183594 241.105469 15.894531 241.105469 16.753906 L 241.105469 32.230469 " fill-opacity="1" fill-rule="nonzero"/><path fill="#1d4e89" d="M 25.449219 30.195312 C 25.449219 31.292969 26.335938 32.179688 27.421875 32.179688 L 75.738281 32.179688 C 76.832031 32.179688 77.714844 31.292969 77.714844 30.195312 L 77.714844 18.785156 C 77.714844 17.691406 76.832031 16.800781 75.738281 16.800781 L 27.421875 16.800781 C 26.335938 16.800781 25.449219 17.691406 25.449219 18.785156 L 25.449219 30.195312 " fill-opacity="1" fill-rule="nonzero"/><path fill="#1d4e89" d="M 76.152344 32.230469 C 76.152344 33.097656 76.851562 33.800781 77.714844 33.800781 C 78.582031 33.800781 79.28125 33.097656 79.28125 32.230469 L 79.28125 16.753906 C 79.28125 15.894531 78.582031 15.183594 77.714844 15.183594 C 76.851562 15.183594 76.152344 15.894531 76.152344 16.753906 L 76.152344 32.230469 " fill-opacity="1" fill-rule="nonzero"/><path fill="#1d4e89" d="M 231.621094 16.902344 C 231.621094 20.890625 228.402344 24.125 224.421875 24.125 C 220.445312 24.125 217.214844 20.890625 217.214844 16.902344 C 217.214844 12.914062 220.445312 9.675781 224.421875 9.675781 C 228.402344 9.675781 231.621094 12.914062 231.621094 16.902344 " fill-opacity="1" fill-rule="nonzero"/><g clip-path="url(#e0ab6d015e)"><path fill="#1d4e89" d="M 225.574219 15.183594 L 226.609375 7.582031 L 236.632812 3.605469 C 236.632812 3.605469 241.378906 4.238281 237.960938 7.167969 C 237.960938 7.167969 232.359375 9.429688 229.328125 9.675781 L 228.488281 15.183594 L 225.574219 15.183594 " fill-opacity="1" fill-rule="nonzero"/></g><path fill="#1d4e89" d="M 85.632812 16.902344 C 85.632812 20.890625 88.855469 24.125 92.84375 24.125 C 96.820312 24.125 100.039062 20.890625 100.039062 16.902344 C 100.039062 12.914062 96.820312 9.675781 92.84375 9.675781 C 88.855469 9.675781 85.632812 12.914062 85.632812 16.902344 " fill-opacity="1" fill-rule="nonzero"/><g clip-path="url(#3c77b76005)"><path fill="#1d4e89" d="M 91.691406 15.183594 L 90.644531 7.582031 L 80.621094 3.605469 C 80.621094 3.605469 75.875 4.238281 79.292969 7.167969 C 79.292969 7.167969 84.894531 9.429688 87.929688 9.675781 L 88.765625 15.183594 L 91.691406 15.183594 " fill-opacity="1" fill-rule="nonzero"/></g><g fill="#1d4e89" fill-opacity="1"><g transform="translate(89.53838, 209.943909)"><g><path d="M 12.679688 -10.445312 C 14.5 -11.269531 15.703125 -12.917969 15.703125 -15.117188 C 15.703125 -18.347656 13.160156 -20.617188 10 -20.617188 L 2.507812 -20.617188 L 2.507812 0 L 10.71875 0 C 13.847656 0 16.355469 -2.234375 16.355469 -5.429688 C 16.355469 -7.9375 14.84375 -9.722656 12.679688 -10.445312 Z M 13.503906 -14.945312 C 13.503906 -12.917969 11.820312 -11.371094 9.757812 -11.371094 L 4.671875 -11.371094 L 4.671875 -18.417969 L 9.757812 -18.417969 C 11.820312 -18.417969 13.503906 -16.972656 13.503906 -14.945312 Z M 10.445312 -2.199219 L 4.671875 -2.199219 L 4.671875 -9.242188 L 10.445312 -9.242188 C 12.472656 -9.242188 14.15625 -7.695312 14.15625 -5.667969 C 14.15625 -3.640625 12.472656 -2.199219 10.445312 -2.199219 Z M 10.445312 -2.199219 "/></g></g></g><g fill="#1d4e89" fill-opacity="1"><g transform="translate(123.999406, 209.943909)"><g><path d="M 10.136719 0.273438 C 14.636719 0.273438 17.902344 -2.714844 17.902344 -6.769531 L 17.902344 -20.617188 L 15.703125 -20.617188 L 15.703125 -7.113281 C 15.703125 -4.125 13.332031 -1.925781 10.136719 -1.925781 C 6.941406 -1.925781 4.605469 -4.125 4.605469 -7.113281 L 4.605469 -20.617188 L 2.40625 -20.617188 L 2.40625 -6.769531 C 2.40625 -2.714844 5.667969 0.273438 10.136719 0.273438 Z M 10.136719 0.273438 "/></g></g></g><g fill="#1d4e89" fill-opacity="1"><g transform="translate(160.796229, 209.943909)"><g><path d="M 2.679688 0 L 4.878906 0 L 4.878906 -20.617188 L 2.679688 -20.617188 Z M 2.679688 0 "/></g></g></g><g fill="#1d4e89" fill-opacity="1"><g transform="translate(184.814854, 209.943909)"><g><path d="M 4.707031 -2.199219 L 4.707031 -20.617188 L 2.507812 -20.617188 L 2.507812 0 L 12.371094 0 L 12.371094 -2.199219 Z M 4.707031 -2.199219 "/></g></g></g><g fill="#1d4e89" fill-opacity="1"><g transform="translate(213.985969, 209.943909)"><g><path d="M 2.507812 0 L 8.144531 0 C 13.8125 0 18.449219 -4.605469 18.449219 -10.308594 C 18.449219 -16.011719 13.8125 -20.617188 8.144531 -20.617188 L 2.507812 -20.617188 Z M 4.671875 -2.199219 L 4.671875 -18.417969 L 8.109375 -18.417969 C 12.679688 -18.417969 16.253906 -14.945312 16.253906 -10.308594 C 16.253906 -5.667969 12.679688 -2.199219 8.109375 -2.199219 Z M 4.671875 -2.199219 "/></g></g></g><g fill="#1d4e89" fill-opacity="1"><g transform="translate(250.611042, 209.943909)"><g><path d="M 13.949219 -18.484375 L 13.949219 -20.617188 L 2.679688 -20.617188 L 2.679688 0 L 13.949219 0 L 13.949219 -2.128906 L 4.878906 -2.128906 L 4.878906 -9.242188 L 12.78125 -9.242188 L 12.78125 -11.371094 L 4.878906 -11.371094 L 4.878906 -18.484375 Z M 13.949219 -18.484375 "/></g></g></g><g fill="#1d4e89" fill-opacity="1"><g transform="translate(283.114104, 209.943909)"><g><path d="M 10.859375 -9.414062 C 13.570312 -9.792969 15.632812 -12.058594 15.632812 -14.84375 C 15.632812 -18.074219 13.054688 -20.617188 9.894531 -20.617188 L 2.507812 -20.617188 L 2.507812 0 L 4.707031 0 L 4.707031 -9.3125 L 8.589844 -9.3125 L 14.429688 0 L 16.9375 0 Z M 4.707031 -11.40625 L 4.707031 -18.417969 L 9.757812 -18.417969 C 11.820312 -18.417969 13.433594 -16.972656 13.433594 -14.910156 C 13.433594 -12.816406 11.855469 -11.40625 9.757812 -11.40625 Z M 4.707031 -11.40625 "/></g></g></g></svg>